<?xml version="1.0" encoding="UTF-8" standalone="no"?>
<!-- Generator: Adobe Illustrator 27.9.0, SVG Export Plug-In . SVG Version: 6.00 Build 0)  -->

<svg
   version="1.1"
   id="Layer_1"
   x="0px"
   y="0px"
   viewBox="0 0 2000 2000.0001"
   xml:space="preserve"
   width="2000"
   height="2000"
   xmlns="http://www.w3.org/2000/svg"
   xmlns:svg="http://www.w3.org/2000/svg"><defs
   id="defs12" />
<style
   type="text/css"
   id="style1">
	.st0{fill:#FFFFFF;}
</style>
<circle
   style="fill:#000000;stroke-width:2.25371"
   id="path2"
   cx="1000"
   cy="1000"
   r="1000" /><path
   id="path1"
   d="m 998.39999,239.84998 c -189.2,0 -326.3,96.2 -404.5,189.2 0.5,0.9 1.1,1.8 1.8,2.8 l -1.6,-1.3 c -69.1,79.1 -123.8,201.6 -123.8,341.4 0,137.6 44.9,236.00002 50.9,248.60002 0.4,0.9 0.7,1.4 0.7,1.4 57,130 165.8,243.8 240.1,344.1 46.9,58.7 94.7,132.4 119.7,177 30.4,57.9 43.1,97 65.7,167.1 13.2,38.4 25.9,50 52.4,50 28.90001,0 42.20001,-19.5 52.30001,-50 21.2,-65.7 37.5,-115.7 63.4,-163.4 99.8,-188.1 262.4,-321.8 353.9,-505 0,0 60.3,-111.90002 60.3,-268.60002 0,-146 -59.4,-247.4 -59.4,-247.4 -66.8,-129.8 -178.4,-219.1 -309.4,-261.4 -1,0.4 -2,1 -3.2,1.7 l 1.6,-1.9 c 0,0 -69.4,-24.3 -160.90001,-24.3 z m 153.20001,165.4 a 202.39999,202.39999 0 0 1 202.4,202.4 202.39999,202.39999 0 0 1 -202.4,202.4 202.39999,202.39999 0 0 1 -202.40001,-202.4 202.39999,202.39999 0 0 1 202.40001,-202.4 z"
   style="fill:#ffffff" />


</svg>
