<?xml version="1.0" encoding="UTF-8" standalone="no"?>
<!-- Generator: Adobe Illustrator 27.9.0, SVG Export Plug-In . SVG Version: 6.00 Build 0)  -->

<svg
   version="1.1"
   id="Layer_1"
   x="0px"
   y="0px"
   viewBox="0 0 6833.2996 1520.3001"
   xml:space="preserve"
   width="6833.2998"
   height="1520.3"
   xmlns="http://www.w3.org/2000/svg"
   xmlns:svg="http://www.w3.org/2000/svg"><defs
   id="defs12" />
<style
   type="text/css"
   id="style1">
	.st0{fill:#FFFFFF;}
</style>
<path
   id="path1"
   d="M 528.1,0 C 338.9,0 201.8,96.2 123.6,189.2 c 0.5,0.9 1.1,1.8 1.8,2.8 l -1.6,-1.3 C 54.7,269.8 0,392.3 0,532.1 c 0,137.6 44.9,236 50.9,248.6 0.4,0.9 0.7,1.4 0.7,1.4 57,130 165.8,243.8 240.1,344.1 46.9,58.7 94.7,132.4 119.7,177 30.4,57.9 43.1,97 65.7,167.1 13.2,38.4 25.9,50 52.4,50 28.9,0 42.2,-19.5 52.3,-50 21.2,-65.7 37.5,-115.7 63.4,-163.4 99.8,-188.1 262.4,-321.8 353.9,-505 0,0 60.3,-111.9 60.3,-268.6 0,-146 -59.4,-247.4 -59.4,-247.4 C 933.2,156.1 821.6,66.8 690.6,24.5 c -1,0.4 -2,1 -3.2,1.7 L 689,24.3 C 689,24.3 619.6,0 528.1,0 Z M 681.3,165.4 A 202.39999,202.39999 0 0 1 883.7,367.8 202.39999,202.39999 0 0 1 681.3,570.2 202.39999,202.39999 0 0 1 478.9,367.8 202.39999,202.39999 0 0 1 681.3,165.4 Z" />

<g
   id="g12"
   transform="translate(-431.3,-363.9)">
	<g
   id="g11">
		<path
   d="m 1896.9,1408.8 -175,-629.9 h 96.4 l 143.7,550.4 h -22.8 l 149.6,-550.4 h 95.5 l 148.8,550.4 h -23.7 L 2454,778.9 h 96.4 l -175,629.9 H 2273.1 L 2123.5,864.3 h 25.4 l -149.6,544.5 z"
   id="path2" />
		<path
   d="m 2836.2,1418.9 c -44,0 -83.8,-10.3 -119.6,-30.9 -35.8,-20.6 -64.3,-48.9 -85.4,-85 -21.1,-36.1 -31.7,-77.2 -31.7,-123.4 0,-45.7 10.4,-86.2 31.3,-121.7 20.8,-35.5 49.2,-63.7 85,-84.5 35.8,-20.8 75.9,-31.3 120.5,-31.3 44.5,0 84.7,10.3 120.5,30.9 35.8,20.6 64.1,48.8 85,84.5 20.8,35.8 31.3,76.5 31.3,122.2 0,46.2 -10.7,87.4 -32.1,123.4 -21.4,36.1 -49.9,64.4 -85.4,85 -35.7,20.5 -75.4,30.8 -119.4,30.8 z m 0,-82.9 c 27.6,0 52.4,-6.8 74.4,-20.3 22,-13.5 39.3,-32.1 52,-55.8 12.7,-23.7 19,-50.4 19,-80.3 0,-29.3 -6.3,-55.7 -19,-79 -12.7,-23.4 -30,-41.8 -52,-55.4 -22,-13.6 -46.8,-20.3 -74.4,-20.3 -27.6,0 -52.3,6.8 -74,20.3 -21.7,13.5 -39,32 -52,55.4 -13,23.4 -19.4,49.7 -19.4,79 0,29.9 6.5,56.6 19.4,80.3 13,23.7 30.3,42.3 52,55.8 21.7,13.6 46.4,20.3 74,20.3 z"
   id="path3" />
		<path
   d="m 3388.3,1418.9 c -44,0 -83.8,-10.3 -119.6,-30.9 -35.8,-20.6 -64.3,-48.9 -85.4,-85 -21.1,-36.1 -31.7,-77.2 -31.7,-123.4 0,-45.7 10.4,-86.2 31.3,-121.7 20.8,-35.5 49.2,-63.7 85,-84.5 35.8,-20.8 75.9,-31.3 120.5,-31.3 44.5,0 84.7,10.3 120.5,30.9 35.8,20.6 64.1,48.8 85,84.5 20.8,35.8 31.3,76.5 31.3,122.2 0,46.2 -10.7,87.4 -32.1,123.4 -21.4,36.1 -49.9,64.4 -85.4,85 -35.7,20.5 -75.4,30.8 -119.4,30.8 z m 0,-82.9 c 27.6,0 52.4,-6.8 74.4,-20.3 22,-13.5 39.3,-32.1 52,-55.8 12.7,-23.7 19,-50.4 19,-80.3 0,-29.3 -6.3,-55.7 -19,-79 -12.7,-23.4 -30,-41.8 -52,-55.4 -22,-13.6 -46.8,-20.3 -74.4,-20.3 -27.6,0 -52.3,6.8 -74,20.3 -21.7,13.5 -39,32 -52,55.4 -13,23.4 -19.4,49.7 -19.4,79 0,29.9 6.5,56.6 19.4,80.3 13,23.7 30.3,42.3 52,55.8 21.7,13.6 46.4,20.3 74,20.3 z"
   id="path4" />
		<path
   d="m 3941.2,1594.7 c -32.7,0 -63,-5.2 -90.9,-15.6 -27.9,-10.4 -51.7,-24.8 -71.4,-43.1 -19.7,-18.3 -34.7,-39.9 -44.8,-64.7 l 80.3,-34.7 c 7.9,21.4 22.7,39.3 44.4,53.7 21.7,14.4 48.9,21.6 81.6,21.6 24.8,0 47.3,-4.7 67.6,-14 20.3,-9.3 36.4,-23.2 48.2,-41.8 11.8,-18.6 17.8,-41.1 17.8,-67.6 v -102.3 l 15.2,16.9 c -15.8,30.4 -38,53.6 -66.8,69.3 -28.7,15.8 -60.6,23.7 -95.5,23.7 -42.8,0 -81.2,-10 -115,-30 -33.8,-20 -60.3,-47.2 -79.5,-81.6 -19.2,-34.4 -28.7,-73 -28.7,-115.8 0,-42.8 9.6,-81.3 28.7,-115.4 19.2,-34.1 45.5,-61.1 79,-81.2 33.5,-20 71.7,-30 114.6,-30 34.9,0 66.5,7.8 94.7,23.2 28.2,15.5 51,37.3 68.5,65.5 l -11.8,22.8 V 952.2 h 83.7 v 436.2 c 0,39.4 -9.4,74.8 -28.3,106.1 -18.9,31.3 -44.8,55.8 -77.8,73.6 -33.1,17.8 -71,26.6 -113.8,26.6 z m -5.9,-281.5 c 26.5,0 50,-6.3 70.6,-19 20.6,-12.7 37.1,-30 49.5,-52 12.4,-22 18.6,-46.2 18.6,-72.7 0,-27.1 -6.2,-51.6 -18.6,-73.6 -12.4,-22 -29,-39.3 -49.9,-52 -20.9,-12.7 -44.3,-19 -70.2,-19 -26.5,0 -50.4,6.3 -71.9,19 -21.4,12.7 -38.2,29.9 -50.3,51.6 -12.1,21.7 -18.2,46.4 -18.2,74 0,26.5 6,50.6 18.2,72.3 12.1,21.7 28.7,39 49.9,52 21.1,12.9 45.2,19.4 72.3,19.4 z"
   id="path5" />
		<path
   d="m 4277.7,1408.8 v -640 h 87.1 v 640 z"
   id="path6" />
		<path
   d="m 4693.6,1418.9 c -45.1,0 -85,-10.6 -119.6,-31.7 -34.6,-21.1 -61.9,-49.7 -81.6,-85.8 -19.7,-36.1 -29.6,-76.9 -29.6,-122.6 0,-45.7 9.9,-86.2 29.6,-121.7 19.7,-35.5 46.4,-63.5 79.9,-84.1 33.5,-20.6 71.4,-30.9 113.7,-30.9 34.4,0 64.8,5.9 91.3,17.8 26.5,11.8 49,28.2 67.6,49 18.6,20.9 32.8,44.4 42.7,70.6 9.9,26.2 14.8,54 14.8,83.3 0,6.8 -0.4,14 -1.3,21.6 -0.8,7.6 -1.8,14.8 -3,21.6 h -369.5 v -72 h 319.6 l -41.4,32.1 c 5.1,-28.2 2.7,-53.4 -7.2,-75.7 -9.9,-22.3 -24.8,-40 -44.8,-53.3 -20,-13.2 -43,-19.9 -68.9,-19.9 -25.9,0 -49.3,6.6 -70.2,19.9 -20.9,13.2 -36.9,32 -48.2,56.2 -11.3,24.2 -15.8,53 -13.5,86.2 -2.8,32.7 1.8,61 13.9,85 12.1,24 29.3,42.6 51.6,55.8 22.3,13.2 47.2,19.9 74.8,19.9 28.7,0 53.3,-6.6 73.6,-19.9 20.3,-13.2 36.4,-30 48.2,-50.3 l 72.7,35.5 c -9,21.4 -23.1,40.7 -42.3,57.9 -19.2,17.2 -41.7,30.7 -67.6,40.6 -25.8,10 -54.3,14.9 -85.3,14.9 z"
   id="path7" />
		<path
   d="M 5156.1,1408.8 V 778.9 h 84.5 l 235.9,331.4 h -42.3 l 233.3,-331.4 h 84.5 v 629.9 h -91.3 V 890.5 l 33,9.3 -235.8,327.2 h -8.5 l -231.6,-327.2 29.6,-9.3 v 518.3 z"
   id="path8" />
		<path
   d="m 6013.3,1418.9 c -30.4,0 -57.2,-5.5 -80.3,-16.5 -23.1,-11 -41.1,-26.2 -54.1,-45.7 -13,-19.4 -19.4,-42.1 -19.4,-68.1 0,-24.2 5.4,-46.2 16.1,-65.9 10.7,-19.7 27.3,-36.4 49.9,-49.9 22.5,-13.5 51,-23.1 85.4,-28.7 l 164,-27.1 v 71 l -145.4,24.5 c -27.1,5.1 -46.9,13.8 -59.6,26.2 -12.7,12.4 -19,28.2 -19,47.3 0,17.5 7,32.1 21.1,44 14.1,11.8 31.8,17.8 53.3,17.8 27.6,0 51.6,-5.8 71.9,-17.3 20.3,-11.5 36.1,-27.3 47.3,-47.3 11.3,-20 16.9,-42.1 16.9,-66.4 v -116.7 c 0,-23.7 -8.7,-43 -26.2,-57.9 -17.5,-14.9 -40.6,-22.4 -69.3,-22.4 -25.4,0 -47.8,6.6 -67.2,19.9 -19.4,13.2 -34,30.6 -43.5,52 l -73.6,-37.2 c 8.5,-22 22.1,-41.4 41,-58.3 18.9,-16.9 40.9,-30.1 65.9,-39.7 25.1,-9.6 51.7,-14.4 79.9,-14.4 35.5,0 66.8,6.8 93.8,20.3 27.1,13.5 48.2,32.1 63.4,55.8 15.2,23.7 22.8,51 22.8,82 v 308.6 h -83.7 v -84.5 l 16.9,4.2 c -10.1,18 -23.5,33.8 -40.2,47.3 -16.6,13.5 -35.7,24.1 -57.1,31.7 -21.4,7.6 -45,11.4 -71,11.4 z"
   id="path9" />
		<path
   d="M 6365,1577.8 V 952.2 h 83.7 v 96.4 l -10.1,-20.3 c 16.9,-26.5 39.7,-47.5 68.5,-63 28.7,-15.5 61.4,-23.2 98.1,-23.2 43.4,0 82.3,10.4 116.7,31.3 34.4,20.9 61.6,49.2 81.6,85 20,35.8 30,76.5 30,122.2 0,45.1 -10,85.7 -30,121.7 -20,36.1 -47.2,64.5 -81.6,85.4 -34.4,20.9 -73.3,31.3 -116.7,31.3 -36.1,0 -68.9,-7.8 -98.5,-23.2 -29.6,-15.5 -52.6,-37.6 -68.9,-66.4 l 14.4,-15.2 V 1578 H 6365 Z M 6597.5,1336 c 27.6,0 52.3,-6.8 74,-20.3 21.7,-13.5 38.7,-32 51.1,-55.4 12.4,-23.4 18.6,-50 18.6,-79.9 0,-29.9 -6.2,-56.5 -18.6,-79.9 -12.4,-23.4 -29.5,-41.8 -51.1,-55.4 -21.7,-13.5 -46.4,-20.3 -74,-20.3 -27.6,0 -52.4,6.8 -74.4,20.3 -22,13.5 -39.3,32 -52,55.4 -12.7,23.4 -19,50 -19,79.9 0,29.9 6.3,56.5 19,79.9 12.7,23.4 30,41.8 52,55.4 22,13.6 46.8,20.3 74.4,20.3 z"
   id="path10" />
		<path
   d="m 7096.3,1418.9 c -46.2,0 -86.5,-11.4 -120.9,-34.2 -34.4,-22.8 -58.6,-53.7 -72.7,-92.6 l 67.6,-32.1 c 13,26.5 30.6,47.5 52.8,63 22.3,15.5 46.6,23.2 73.1,23.2 23.7,0 43.1,-5.5 58.3,-16.5 15.2,-11 22.8,-25.5 22.8,-43.5 0,-12.4 -3.4,-22.4 -10.1,-30 -6.8,-7.6 -15.2,-13.8 -25.4,-18.6 -10.1,-4.8 -19.7,-8.3 -28.7,-10.6 l -70.2,-19.4 c -40.6,-11.8 -70.5,-28.9 -89.6,-51.1 -19.2,-22.3 -28.7,-48.3 -28.7,-78.2 0,-27.6 7,-51.6 21.1,-71.9 14.1,-20.3 33.2,-36.1 57.5,-47.3 24.2,-11.3 51.6,-16.9 82,-16.9 41.1,0 77.9,10.3 110.3,30.9 32.4,20.6 55.1,49.2 68.1,85.8 l -68.5,32.1 c -9.6,-23.1 -24.4,-41.3 -44.4,-54.5 -20,-13.2 -42.4,-19.9 -67.2,-19.9 -22,0 -39.5,5.4 -52.4,16.1 -13,10.7 -19.4,24.2 -19.4,40.6 0,11.8 3.1,21.6 9.3,29.2 6.2,7.6 14.1,13.5 23.7,17.8 9.6,4.2 18.9,7.8 27.9,10.6 l 74.4,22 c 37.2,10.7 66.1,27.5 86.7,50.3 20.6,22.8 30.9,50 30.9,81.6 0,25.9 -7.2,49 -21.6,69.3 -14.4,20.3 -34.1,36.2 -59.2,47.8 -25,11.2 -54.2,17 -87.5,17 z"
   id="path11" />
	</g>
</g>
</svg>
