<?xml version="1.0" encoding="UTF-8" standalone="no"?>
<!-- Generator: Adobe Illustrator 27.9.0, SVG Export Plug-In . SVG Version: 6.00 Build 0)  -->

<svg
   version="1.1"
   id="Layer_1"
   x="0px"
   y="0px"
   viewBox="0 0 1059.4 1520.3001"
   xml:space="preserve"
   width="1059.4"
   height="1520.3"
   xmlns="http://www.w3.org/2000/svg"
   xmlns:svg="http://www.w3.org/2000/svg"><defs
   id="defs12" />
<style
   type="text/css"
   id="style1">
	path {
        fill: #000000;
    }
    @media (prefers-color-scheme: dark) {
        path { fill: #FFFFFF; }
    }
</style>
<path
   id="path1"
   d="M 528.1,0 C 338.9,0 201.8,96.2 123.6,189.2 c 0.5,0.9 1.1,1.8 1.8,2.8 l -1.6,-1.3 C 54.7,269.8 0,392.3 0,532.1 c 0,137.6 44.9,236 50.9,248.6 0.4,0.9 0.7,1.4 0.7,1.4 57,130 165.8,243.8 240.1,344.1 46.9,58.7 94.7,132.4 119.7,177 30.4,57.9 43.1,97 65.7,167.1 13.2,38.4 25.9,50 52.4,50 28.9,0 42.2,-19.5 52.3,-50 21.2,-65.7 37.5,-115.7 63.4,-163.4 99.8,-188.1 262.4,-321.8 353.9,-505 0,0 60.3,-111.9 60.3,-268.6 0,-146 -59.4,-247.4 -59.4,-247.4 C 933.2,156.1 821.6,66.8 690.6,24.5 c -1,0.4 -2,1 -3.2,1.7 L 689,24.3 C 689,24.3 619.6,0 528.1,0 Z M 681.3,165.4 A 202.39999,202.39999 0 0 1 883.7,367.8 202.39999,202.39999 0 0 1 681.3,570.2 202.39999,202.39999 0 0 1 478.9,367.8 202.39999,202.39999 0 0 1 681.3,165.4 Z" />


</svg>
